<svg width="29" height="29" viewBox="0 0 29 29" fill="none" xmlns="http://www.w3.org/2000/svg">
<path d="M17.2149 14.5162L0.626542 12.845L0.625 2.28152C0.625202 1.99943 0.69747 1.72207 0.83495 1.47575C0.972429 1.22943 1.17056 1.02232 1.41055 0.874066C1.65054 0.725811 1.92442 0.641328 2.20623 0.628631C2.48803 0.615935 2.7684 0.675446 3.02075 0.801519L27.4592 13.0208C27.7338 13.1585 27.9646 13.3698 28.1259 13.6312C28.2872 13.8926 28.3726 14.1936 28.3726 14.5008C28.3726 14.8079 28.2872 15.109 28.1259 15.3703C27.9646 15.6317 27.7338 15.8431 27.4592 15.9808L3.02383 28.2C2.77149 28.3261 2.49111 28.3856 2.20931 28.3729C1.92751 28.3602 1.65362 28.2757 1.41363 28.1275C1.17364 27.9792 0.975513 27.7721 0.838033 27.5258C0.700554 27.2795 0.628285 27.0021 0.628083 26.72V16.1565L17.2149 14.5162Z" fill="#636363"/>
</svg>
