<svg width="25.000000" height="25.000244" viewBox="0 0 25 25.0002" fill="none" xmlns="http://www.w3.org/2000/svg" xmlns:xlink="http://www.w3.org/1999/xlink">
	<desc>
			Created with Pixso.
	</desc>
	<defs/>
	<path id="Vector" d="M21.73 2.42C23.26 2.42 24.5 3.65 24.5 5.18L24.5 21.74C24.5 23.26 23.26 24.5 21.73 24.5L3.26 24.5C1.73 24.5 0.5 23.26 0.5 21.74L0.5 5.18C0.5 3.65 1.73 2.42 3.26 2.42L21.73 2.42Z" stroke="#000000" stroke-opacity="1.000000" stroke-width="1.000000" stroke-linejoin="round"/>
	<path id="Vector" d="M16.34 11.05C16.34 11.85 15.69 12.49 14.9 12.49C14.1 12.49 13.46 11.85 13.46 11.05C13.46 10.26 14.1 9.61 14.9 9.61C15.69 9.61 16.34 10.26 16.34 11.05Z" fill="#000000" fill-opacity="1.000000" fill-rule="evenodd"/>
	<path id="Vector" d="M20.66 11.05C20.66 11.85 20.12 12.49 19.45 12.49C18.79 12.49 18.26 11.85 18.26 11.05C18.26 10.26 18.79 9.61 19.45 9.61C20.12 9.61 20.66 10.26 20.66 11.05Z" fill="#000000" fill-opacity="1.000000" fill-rule="evenodd"/>
	<path id="Vector" d="M16.34 15.86C16.34 16.65 15.69 17.29 14.9 17.29C14.1 17.29 13.46 16.65 13.46 15.86C13.46 15.06 14.1 14.42 14.9 14.42C15.69 14.42 16.34 15.06 16.34 15.86Z" fill="#000000" fill-opacity="1.000000" fill-rule="evenodd"/>
	<path id="Vector" d="M20.66 15.86C20.66 16.65 20.12 17.29 19.45 17.29C18.79 17.29 18.26 16.65 18.26 15.86C18.26 15.06 18.79 14.42 19.45 14.42C20.12 14.42 20.66 15.06 20.66 15.86Z" fill="#000000" fill-opacity="1.000000" fill-rule="evenodd"/>
	<path id="Vector" d="M6.73 15.86C6.73 16.65 6.2 17.29 5.53 17.29C4.87 17.29 4.33 16.65 4.33 15.86C4.33 15.06 4.87 14.42 5.53 14.42C6.2 14.42 6.73 15.06 6.73 15.86Z" fill="#000000" fill-opacity="1.000000" fill-rule="evenodd"/>
	<path id="Vector" d="M11.54 15.86C11.54 16.65 10.89 17.29 10.1 17.29C9.3 17.29 8.66 16.65 8.66 15.86C8.66 15.06 9.3 14.42 10.1 14.42C10.89 14.42 11.54 15.06 11.54 15.86Z" fill="#000000" fill-opacity="1.000000" fill-rule="evenodd"/>
	<path id="Vector" d="M6.73 20.17C6.73 20.97 6.2 21.61 5.53 21.61C4.87 21.61 4.33 20.97 4.33 20.17C4.33 19.38 4.87 18.74 5.53 18.74C6.2 18.74 6.73 19.38 6.73 20.17Z" fill="#000000" fill-opacity="1.000000" fill-rule="evenodd"/>
	<path id="Vector" d="M11.54 20.17C11.54 20.97 10.89 21.61 10.1 21.61C9.3 21.61 8.66 20.97 8.66 20.17C8.66 19.38 9.3 18.74 10.1 18.74C10.89 18.74 11.54 19.38 11.54 20.17Z" fill="#000000" fill-opacity="1.000000" fill-rule="evenodd"/>
	<path id="Vector" d="M16.34 20.17C16.34 20.97 15.69 21.61 14.9 21.61C14.1 21.61 13.46 20.97 13.46 20.17C13.46 19.38 14.1 18.74 14.9 18.74C15.69 18.74 16.34 19.38 16.34 20.17Z" fill="#000000" fill-opacity="1.000000" fill-rule="evenodd"/>
	<path id="Vector" d="M5.3 0.5L5.3 2.41M19.7 0.5L19.7 2.41" stroke="#000000" stroke-opacity="1.000000" stroke-width="1.000000" stroke-linejoin="round" stroke-linecap="round"/>
	<path id="Vector" d="M24.5 6.73L0.5 6.73" stroke="#000000" stroke-opacity="1.000000" stroke-width="1.000000" stroke-linejoin="round"/>
</svg>
