<svg width="13.000000" height="13.000000" viewBox="0 0 13 13" fill="none" xmlns="http://www.w3.org/2000/svg" xmlns:xlink="http://www.w3.org/1999/xlink">
	<desc>
			Created with Pixso.
	</desc>
	<defs/>
	<path id="Vector" d="M12.82 1C12.88 0.95 12.92 0.88 12.95 0.81C12.98 0.74 13 0.66 13 0.59C13 0.51 12.98 0.43 12.95 0.36C12.92 0.29 12.88 0.22 12.82 0.17C12.77 0.11 12.7 0.07 12.63 0.04C12.56 0.01 12.48 0 12.4 0C12.33 0 12.25 0.01 12.18 0.04C12.11 0.07 12.04 0.11 11.99 0.17L6.5 5.66L1.01 0.17C0.95 0.11 0.88 0.07 0.81 0.04C0.74 0.01 0.66 0 0.59 0C0.51 0 0.43 0.01 0.36 0.04C0.29 0.07 0.22 0.11 0.17 0.17C0.11 0.22 0.07 0.29 0.04 0.36C0.01 0.43 0 0.51 0 0.59C0 0.66 0.01 0.74 0.04 0.81C0.07 0.88 0.11 0.95 0.17 1L5.66 6.5L0.17 11.99C0.06 12.1 0 12.25 0 12.4C0 12.56 0.06 12.71 0.17 12.82C0.28 12.93 0.43 13 0.59 13C0.74 13 0.89 12.93 1.01 12.82L6.5 7.33L11.99 12.82C12.1 12.93 12.25 13 12.4 13C12.56 13 12.71 12.93 12.82 12.82C12.93 12.71 13 12.56 13 12.4C13 12.25 12.93 12.1 12.82 11.99L7.33 6.5L12.82 1Z" fill="#F94056" fill-opacity="1.000000" fill-rule="evenodd"/>
</svg>
