<svg width="35.000000" height="35.000000" viewBox="0 0 35 35" fill="none" xmlns="http://www.w3.org/2000/svg" xmlns:xlink="http://www.w3.org/1999/xlink">
	<desc>
			Created with Pixso.
	</desc>
	<defs/>
	<path id="Vector" d="M17.5 7.49C16.26 7.49 15.05 7.86 14.02 8.55C12.99 9.24 12.19 10.21 11.72 11.35C11.25 12.5 11.12 13.75 11.37 14.96C11.61 16.18 12.2 17.29 13.08 18.16C13.95 19.04 15.06 19.63 16.28 19.87C17.49 20.12 18.74 19.99 19.89 19.52C21.03 19.05 22 18.25 22.69 17.22C23.38 16.19 23.75 14.98 23.75 13.75C23.75 12.09 23.09 10.5 21.91 9.33C20.74 8.15 19.15 7.49 17.5 7.49ZM17.5 17.5C16.75 17.5 16.03 17.28 15.41 16.86C14.79 16.45 14.31 15.87 14.03 15.18C13.75 14.49 13.67 13.74 13.82 13.01C13.96 12.29 14.32 11.62 14.84 11.09C15.37 10.57 16.04 10.21 16.76 10.07C17.49 9.92 18.24 10 18.93 10.28C19.62 10.56 20.2 11.04 20.61 11.66C21.03 12.28 21.25 13 21.25 13.75C21.24 14.74 20.85 15.69 20.15 16.4C19.44 17.1 18.49 17.49 17.5 17.5Z" fill="#FFFFFF" fill-opacity="1.000000" fill-rule="nonzero"/>
	<path id="Vector" d="M17.5 0C14.03 0 10.65 1.02 7.77 2.94C4.89 4.87 2.65 7.6 1.33 10.8C0 14 -0.34 17.51 0.33 20.91C1.01 24.3 2.67 27.42 5.12 29.87C7.57 32.32 10.69 33.98 14.08 34.66C17.48 35.33 20.99 34.99 24.19 33.66C27.39 32.34 30.12 30.1 32.05 27.22C33.97 24.34 35 20.96 35 17.5C34.99 12.86 33.14 8.41 29.86 5.13C26.58 1.85 22.13 0 17.5 0ZM10 30.47L10 28.75C10 27.75 10.39 26.8 11.09 26.09C11.8 25.39 12.75 25 13.75 25L21.25 25C22.24 25 23.19 25.39 23.9 26.09C24.6 26.8 24.99 27.75 25 28.75L25 30.47C22.72 31.79 20.13 32.5 17.5 32.5C14.86 32.5 12.27 31.79 10 30.47ZM27.49 28.65C27.46 27.01 26.79 25.45 25.63 24.3C24.46 23.14 22.88 22.5 21.25 22.5L13.75 22.5C12.11 22.5 10.53 23.14 9.36 24.3C8.2 25.45 7.53 27.01 7.5 28.65C5.24 26.63 3.64 23.96 2.92 21.01C2.2 18.06 2.4 14.96 3.48 12.12C4.56 9.28 6.48 6.83 8.99 5.11C11.49 3.39 14.46 2.46 17.5 2.46C20.53 2.46 23.5 3.39 26 5.11C28.51 6.83 30.43 9.28 31.51 12.12C32.59 14.96 32.79 18.06 32.07 21.01C31.35 23.96 29.75 26.63 27.49 28.65Z" fill="#FFFFFF" fill-opacity="1.000000" fill-rule="nonzero"/>
</svg>
