<svg width="149.111084" height="99.972046" viewBox="0 0 149.111 99.972" fill="none" xmlns="http://www.w3.org/2000/svg" xmlns:xlink="http://www.w3.org/1999/xlink">
	<desc>
			Created with Pixso.
	</desc>
	<defs>
		<clipPath id="clip15_147">
			<rect id="Gift Bag" rx="-0.500000" width="83.722221" height="83.722221" transform="translate(26.763794 15.749878)" fill="white" fill-opacity="0"/>
		</clipPath>
	</defs>
	<rect id="Gift Bag" rx="-0.500000" width="83.722221" height="83.722221" transform="translate(26.763794 15.749878)" fill="#FFFFFF" fill-opacity="0"/>
	<g clip-path="url(#clip15_147)">
		<path id="Vector" d="M83.87 90.65L107.73 90.65L99 33.04L84.72 33.04L84.72 29.65C84.72 26.73 83.56 23.93 81.49 21.86C79.43 19.79 76.62 18.63 73.7 18.63C70.78 18.63 67.98 19.79 65.92 21.86C63.85 23.93 62.69 26.73 62.69 29.65L62.69 33.04L49.26 33.04L44.9 59.3L29.65 59.3L29.65 65.23L31.34 65.23L31.34 60.99L62.69 60.99L62.69 72.11C61.44 69.2 58.89 67.59 56.94 67.51C56.36 67.46 55.77 67.58 55.27 67.86C54.76 68.15 54.35 68.58 54.09 69.1C53.15 71.03 53.12 72.77 54 74.26C54.88 75.56 56.14 76.54 57.61 77.09L31.34 77.09L31.34 70.31L29.65 70.31L29.65 96.58L82.18 96.58L82.18 59.3L46.59 59.3L50.68 34.73L62.69 34.73L62.69 39.2C62.37 39.39 62.11 39.68 61.97 40.02C61.83 40.37 61.8 40.75 61.9 41.11C62 41.47 62.21 41.79 62.51 42.02C62.8 42.24 63.16 42.37 63.54 42.37C63.91 42.37 64.27 42.24 64.57 42.02C64.86 41.79 65.08 41.47 65.17 41.11C65.27 40.75 65.24 40.37 65.1 40.02C64.96 39.68 64.71 39.39 64.38 39.2L64.38 34.73L81.33 34.73L81.33 33.04L64.38 33.04L64.38 29.65C64.38 27.18 65.37 24.81 67.11 23.06C68.86 21.31 71.23 20.33 73.7 20.33C76.17 20.33 78.55 21.31 80.29 23.06C82.04 24.81 83.02 27.18 83.02 29.65L83.02 39.2C82.7 39.39 82.45 39.68 82.3 40.02C82.16 40.37 82.14 40.75 82.23 41.11C82.33 41.47 82.54 41.79 82.84 42.02C83.13 42.24 83.5 42.37 83.87 42.37C84.24 42.37 84.61 42.24 84.9 42.02C85.2 41.79 85.41 41.47 85.51 41.11C85.6 40.75 85.58 40.37 85.44 40.02C85.29 39.68 85.04 39.39 84.72 39.2L84.72 34.73L97.54 34.73L105.76 88.95L83.87 88.95L83.87 90.65ZM65.82 73.02C66.71 70.7 68.76 69.26 70.2 69.2L70.31 69.2C70.55 69.17 70.78 69.22 70.99 69.34C71.2 69.45 71.36 69.63 71.47 69.84C72.15 71.25 72.2 72.38 71.62 73.4C70.62 75.09 67.85 76.09 65.43 76.61C65.26 75.4 65.4 74.16 65.82 73.02ZM55.46 73.39C54.89 72.4 54.94 71.24 55.61 69.83C55.72 69.62 55.89 69.45 56.09 69.34C56.29 69.23 56.53 69.18 56.76 69.2L56.85 69.2C58.31 69.26 60.34 70.7 61.23 73.02C61.66 74.16 61.8 75.4 61.64 76.61C59.23 76.09 56.47 75.11 55.46 73.4L55.46 73.39ZM31.34 78.79L61.11 78.79C60.14 81.14 58.67 83.24 56.8 84.96L57.99 86.17C60.03 84.28 61.63 81.97 62.68 79.4L62.68 94.88L31.34 94.88L31.34 78.79ZM64.38 94.88L64.38 79.41C65.44 81.99 67.04 84.3 69.08 86.19L70.26 84.98C68.39 83.26 66.93 81.14 65.97 78.79L80.48 78.79L80.48 94.88L64.38 94.88ZM80.48 77.09L69.47 77.09C70.92 76.54 72.17 75.55 73.04 74.25C73.89 72.76 73.89 71.03 72.95 69.09C72.69 68.57 72.28 68.14 71.77 67.85C71.27 67.57 70.68 67.45 70.1 67.5C68.15 67.59 65.6 69.2 64.35 72.1L64.35 60.99L80.48 60.99L80.48 77.09Z" fill="#C931EB" fill-opacity="1.000000" fill-rule="nonzero"/>
		<path id="Vector" d="M29.65 66.93L31.34 66.93L31.34 68.62L29.65 68.62L29.65 66.93Z" fill="#C931EB" fill-opacity="1.000000" fill-rule="evenodd"/>
	</g>
	<path id="Star 2" d="M125.38 0L122.63 12.68L110.98 15.67L122.63 18.66L125.38 31.34L128.13 18.66L139.79 15.67L128.13 12.68L125.38 0Z" fill="#D9D9D9" fill-opacity="0" fill-rule="evenodd"/>
	<path id="Star 2" d="M122.63 12.68L110.98 15.67L122.63 18.66L125.38 31.34L128.13 18.66L139.79 15.67L128.13 12.68L125.38 0L122.63 12.68ZM125.38 4.71L123.48 13.49L115 15.67L123.48 17.85L125.38 26.62L127.29 17.85L135.77 15.67L127.29 13.49L125.38 4.71Z" fill="#000000" fill-opacity="1.000000" fill-rule="evenodd"/>
	<path id="Star 2" d="M139.79 16.94L138.01 25.17L130.47 27.11L138.01 29.05L139.79 37.27L141.57 29.05L149.11 27.11L141.57 25.17L139.79 16.94Z" fill="#D9D9D9" fill-opacity="0" fill-rule="evenodd"/>
	<path id="Star 2" d="M138.01 25.17L130.47 27.11L138.01 29.05L139.79 37.27L141.57 29.05L149.11 27.11L141.57 25.17L139.79 16.94L138.01 25.17ZM139.79 21.67L138.85 25.98L134.48 27.11L138.85 28.23L139.79 32.54L140.72 28.23L145.1 27.11L140.72 25.98L139.79 21.67Z" fill="#000000" fill-opacity="1.000000" fill-rule="evenodd"/>
	<path id="Star 2" d="M9.74 25.41L7.88 33.98L0 36L7.88 38.02L9.74 46.59L11.6 38.02L19.48 36L11.6 33.98L9.74 25.41Z" fill="#D9D9D9" fill-opacity="0" fill-rule="evenodd"/>
	<path id="Star 2" d="M7.88 33.98L0 36L7.88 38.02L9.74 46.59L11.6 38.02L19.48 36L11.6 33.98L9.74 25.41L7.88 33.98ZM9.74 30.13L8.72 34.8L4.02 36L8.72 37.21L9.74 41.88L10.75 37.21L15.46 36L10.75 34.8L9.74 30.13Z" fill="#000000" fill-opacity="1.000000" fill-rule="evenodd"/>
</svg>
