<svg width="67" height="67" viewBox="0 0 67 67" fill="none" xmlns="http://www.w3.org/2000/svg">
<circle cx="33.5" cy="33.5" r="33.5" fill="#6688ED"/>
<path d="M15.41 50.3743V19.4546C15.41 17.2208 17.2098 15.41 19.43 15.41H47.57C49.7902 15.41 51.59 17.2208 51.59 19.4546V39.6774C51.59 41.9112 49.7902 43.722 47.57 43.722H25.3821C24.1609 43.722 23.0059 44.2805 22.243 45.2399L17.5577 51.1322C16.8456 52.0279 15.41 51.5213 15.41 50.3743Z" stroke="white" stroke-width="2"/>
<path d="M30.6982 32.1671V31.8773C30.7039 30.883 30.7919 30.0904 30.9624 29.4995C31.1385 28.9085 31.3942 28.4313 31.7294 28.0676C32.0647 27.704 32.4681 27.3745 32.9397 27.079C33.2919 26.8517 33.6073 26.6159 33.8857 26.3716C34.1641 26.1273 34.3857 25.8574 34.5505 25.562C34.7152 25.2608 34.7976 24.9256 34.7976 24.5563C34.7976 24.1642 34.7039 23.8205 34.5164 23.525C34.3289 23.2296 34.076 23.0023 33.7578 22.8432C33.4453 22.6841 33.0988 22.6046 32.7181 22.6046C32.3488 22.6046 31.9993 22.687 31.6698 22.8517C31.3402 23.0108 31.0703 23.2495 30.8601 23.5676C30.6499 23.8801 30.5363 24.2693 30.5192 24.7353H27.0419C27.0703 23.5989 27.3431 22.6614 27.8601 21.9228C28.3772 21.1784 29.0618 20.6245 29.9141 20.2608C30.7664 19.8915 31.7067 19.7068 32.7351 19.7068C33.8658 19.7068 34.8658 19.8943 35.7351 20.2693C36.6044 20.6387 37.2863 21.1756 37.7806 21.8801C38.2749 22.5847 38.5221 23.4341 38.5221 24.4284C38.5221 25.0932 38.4113 25.6841 38.1897 26.2012C37.9738 26.7125 37.6698 27.1671 37.2777 27.5648C36.8857 27.9568 36.4226 28.312 35.8885 28.6301C35.4397 28.8972 35.0703 29.1756 34.7806 29.4654C34.4965 29.7551 34.2834 30.0904 34.1414 30.471C34.005 30.8517 33.934 31.3205 33.9283 31.8773V32.1671H30.6982ZM32.3857 37.6216C31.8175 37.6216 31.3317 37.4228 30.9283 37.025C30.5306 36.6216 30.3346 36.1387 30.3402 35.5762C30.3346 35.0193 30.5306 34.5421 30.9283 34.1443C31.3317 33.7466 31.8175 33.5478 32.3857 33.5478C32.9255 33.5478 33.3999 33.7466 33.809 34.1443C34.2181 34.5421 34.4255 35.0193 34.4311 35.5762C34.4255 35.9512 34.326 36.2949 34.1328 36.6074C33.9453 36.9142 33.6982 37.1614 33.3914 37.3489C33.0846 37.5307 32.7493 37.6216 32.3857 37.6216Z" fill="white"/>
</svg>
