<svg width="18" height="16" viewBox="0 0 18 16" fill="none" xmlns="http://www.w3.org/2000/svg">
<path d="M9.79996 15H8.14565C5.94577 15 4.84503 15 4.08187 14.4089C3.04113 13.5953 2.96993 11.9457 2.76114 10.7907L2.28677 8.16567C2.2416 7.92959 2.13884 7.7075 1.98712 7.51803C1.8354 7.32856 1.63914 7.17724 1.41482 7.07678C1.36045 7.05268 1.31261 7.01658 1.27512 6.97135C1.23762 6.92611 1.2115 6.873 1.19883 6.81622C1.06284 6.18856 0.701257 5.31433 1.51081 4.96744C1.694 4.88889 1.94439 4.88889 2.44356 4.88889H5.4002M8.60002 4.88889H15.5564C16.0564 4.88889 16.306 4.88889 16.4892 4.96667C17.2987 5.31433 16.9372 6.18778 16.8012 6.81622C16.7885 6.873 16.7624 6.92611 16.7249 6.97135C16.6874 7.01658 16.6396 7.05268 16.5852 7.07678C15.9932 7.34978 15.7964 7.839 15.6772 8.38889M12.1998 10.3333L14.5997 12.6667M14.5997 12.6667L16.9996 15M14.5997 12.6667L12.1998 15M14.5997 12.6667L16.9996 10.3333M4.60024 7.22222L7.40009 1M11.3999 1L13.3998 4.88889" stroke="black" stroke-width="1.5" stroke-linecap="round" stroke-linejoin="round"/>
</svg>
