<svg width="20" height="19" viewBox="0 0 20 19" fill="none" xmlns="http://www.w3.org/2000/svg">
<path d="M13.4189 6.82701C15.6249 6.82701 11.963 4.00005 11.963 6.20605C11.963 10.8751 12.957 1.31325 10 3.39525C7.043 1.31325 8.773 10.169 8.773 5.50001C8.773 3.29401 3.794 7.50001 6 7.50001C6.64231 7.50146 9.43042 13.0301 10 13.327C10.5696 13.6239 8.40395 2.68031 8.773 3.20601L10 13.327L11.227 3.20701C11.5959 2.68112 10.97 11.0455 12.9189 5.50001C13.4885 5.20295 12.7766 6.82857 13.4189 6.82701ZM14.5 1.12653e-05C13.6167 -0.000117742 12.7464 0.212894 11.963 0.620964C11.1796 1.02903 10.5062 1.62011 10 2.34401C9.49382 1.62011 8.82044 1.02903 8.03703 0.620964C7.25363 0.212894 6.38332 -0.000117742 5.5 1.12653e-05C4.04131 1.12653e-05 2.64236 0.579474 1.61091 1.61092C0.579463 2.64237 0 4.04132 0 5.50001C0 11.219 6.5 15.938 10 18.35C13.5 15.938 20 11.219 20 5.50001C20 4.77774 19.8577 4.06254 19.5813 3.39525C19.3049 2.72796 18.8998 2.12165 18.3891 1.61092C17.8784 1.1002 17.2721 0.695075 16.6048 0.418674C15.9375 0.142273 15.2223 1.12653e-05 14.5 1.12653e-05Z" fill="#FF5496"/>
</svg>
