<svg width="20" height="35" viewBox="0 0 20 35" fill="none" xmlns="http://www.w3.org/2000/svg">
<path d="M13.6264 25.4302C15.5909 24.9694 17.3249 24.2199 18.883 23.2167L18.8152 23.2575C19.533 22.7778 20 21.9641 20 21.0411C20 19.5786 18.8282 18.3931 17.3825 18.3931C16.8809 18.3931 16.4125 18.536 16.0147 18.7824L16.0262 18.7752C14.3197 19.8702 12.2427 20.5191 10.0159 20.5191C7.78899 20.5191 5.71058 19.8688 3.95935 18.7474L4.00548 18.7752C3.61055 18.52 3.12914 18.3683 2.6117 18.3683C1.68636 18.3683 0.873451 18.8554 0.407898 19.5888L0.402133 19.599C0.402133 19.599 0.402133 19.599 0.402133 19.6063C0.149899 20.0058 0 20.4929 0 21.0163C0 21.9539 0.482848 22.7763 1.20928 23.2458L1.21937 23.2517C2.70971 24.2155 4.44364 24.9635 6.29576 25.3995L6.40819 25.4214L1.40819 30.4739C0.929663 30.9507 0.632747 31.6127 0.632747 32.3462C0.632747 33.0592 0.913808 33.7052 1.36783 34.1776L1.41107 34.2213C1.88095 34.6982 2.53099 34.9927 3.24877 34.9927C3.96656 34.9927 4.6166 34.6982 5.08648 34.2213L10.0173 29.2578L14.9178 34.2243C15.3906 34.7025 16.045 35 16.7671 35C18.2113 35 19.3817 33.816 19.3817 32.3549C19.3817 31.6244 19.0891 30.9638 18.6163 30.4841L13.6264 25.4302ZM10.0159 18.0636C14.9423 18.0592 18.9349 14.0172 18.9349 9.03179C18.9349 4.04345 14.938 0 10.0072 0C5.07639 0 1.07956 4.04345 1.07956 9.03179V9.04054C1.08965 14.026 5.08648 18.0636 10.0159 18.0636ZM10.0159 5.29309C12.0582 5.29309 13.7129 6.96705 13.7129 9.03325C13.7129 11.0994 12.0582 12.7734 10.0159 12.7734C7.97636 12.7734 6.32171 11.1024 6.31882 9.03908C6.31882 9.03762 6.31882 9.03762 6.31882 9.03616C6.31882 6.96996 7.97348 5.29455 10.0159 5.29309Z" fill="white"/>
</svg>
