<svg width="140.227585" height="139.459412" viewBox="0 0 140.228 139.459" fill="none" xmlns="http://www.w3.org/2000/svg" xmlns:xlink="http://www.w3.org/1999/xlink">
	<desc>
			Created with Pixso.
	</desc>
	<defs/>
	<path id="Star 3" d="M70.11 0L58.02 13.6L41.43 6.09L35.92 23.44L17.72 23.32L19.74 41.41L3.06 48.71L12.26 64.42L0 77.86L14.79 88.47L9.05 105.75L26.89 109.41L28.67 127.53L46.45 123.63L55.45 139.45L70.11 128.66L84.77 139.45L93.77 123.63L111.55 127.53L113.33 109.41L131.16 105.75L125.43 88.47L140.22 77.86L127.95 64.42L137.16 48.71L120.48 41.41L122.5 23.32L104.3 23.44L98.78 6.09L82.2 13.6L70.11 0Z" fill="#FFEF3A" fill-opacity="1.000000" fill-rule="evenodd"/>
</svg>
