<svg width="40.005981" height="34.002930" viewBox="0 0 40.006 34.0029" fill="none" xmlns="http://www.w3.org/2000/svg" xmlns:xlink="http://www.w3.org/1999/xlink">
	<desc>
			Created with Pixso.
	</desc>
	<defs/>
	<path id="Vector" d="M39.36 3.54L33.48 31.5C33.07 33.49 31.88 33.97 30.23 33.04L16.2 22.59C16.15 22.55 16.1 22.5 16.07 22.44C16.04 22.38 16.03 22.31 16.03 22.24C16.03 22.18 16.04 22.11 16.07 22.05C16.1 21.99 16.15 21.94 16.2 21.9L32.41 7.14C33.14 6.48 32.25 6.16 31.28 6.76L10.94 19.7C10.88 19.74 10.81 19.76 10.74 19.77C10.66 19.78 10.59 19.77 10.52 19.75L1.89 17C-0.03 16.43 -0.03 15.1 2.32 14.16L36.87 0.72C37.14 0.59 37.44 0.51 37.74 0.5C38.94 0.5 39.85 1.56 39.36 3.54Z" stroke="#FFFFFF" stroke-opacity="1.000000" stroke-width="1.000000" stroke-linejoin="round"/>
</svg>
