<svg width="33.000000" height="35.000000" viewBox="0 0 33 35" fill="none" xmlns="http://www.w3.org/2000/svg" xmlns:xlink="http://www.w3.org/1999/xlink">
	<desc>
			Created with Pixso.
	</desc>
	<defs/>
	<path id="Vector" d="M29.27 3.4C28.41 2.6 24.92 0.05 17.13 0.02C17.13 0.02 7.95 -0.53 3.48 3.59C0.99 6.1 0.11 9.77 0.02 14.31C-0.08 18.86 -0.19 27.37 7.97 29.68L7.97 29.68L7.97 33.21C7.97 33.21 7.91 34.64 8.85 34.93C9.98 35.28 10.65 34.2 11.73 33.03C12.32 32.38 13.13 31.44 13.75 30.72C19.34 31.19 23.63 30.11 24.12 29.96C25.24 29.59 31.63 28.77 32.66 20.25C33.73 11.46 32.14 5.91 29.27 3.4ZM30.22 19.61C29.34 26.72 24.17 27.17 23.22 27.48C22.81 27.61 19.04 28.55 14.3 28.24C14.3 28.24 10.77 32.53 9.67 33.64C9.31 34 8.91 33.97 8.92 33.25C8.92 32.78 8.95 27.39 8.95 27.39C2.03 25.47 2.44 18.21 2.51 14.42C2.59 10.63 3.3 7.52 5.41 5.43C9.19 1.97 16.99 2.49 16.99 2.49C23.57 2.51 26.73 4.51 27.46 5.18C29.89 7.27 31.12 12.28 30.22 19.61ZM20.77 14.09C20.8 14.67 19.92 14.72 19.89 14.13C19.82 12.62 19.12 11.89 17.68 11.81C17.09 11.78 17.15 10.89 17.73 10.93C19.62 11.03 20.68 12.12 20.77 14.09ZM22.15 14.86C22.22 11.96 20.42 9.69 17 9.44C16.42 9.4 16.48 8.52 17.06 8.56C21 8.84 23.1 11.57 23.03 14.88C23.02 15.47 22.14 15.44 22.15 14.86ZM25.35 15.77C25.35 16.36 24.47 16.37 24.47 15.78C24.43 10.21 20.74 7.18 16.26 7.14C15.68 7.14 15.68 6.26 16.26 6.26C21.27 6.29 25.3 9.77 25.35 15.77ZM24.58 22.48L24.58 22.49C23.84 23.79 22.47 25.23 21.06 24.77L21.04 24.75C19.61 24.35 16.23 22.6 14.1 20.89C13 20.01 11.99 18.98 11.22 17.99C10.52 17.11 9.81 16.06 9.12 14.8C7.68 12.17 7.36 11 7.36 11C6.9 9.58 8.32 8.19 9.62 7.46L9.63 7.46C10.26 7.13 10.86 7.24 11.26 7.72C11.26 7.72 12.1 8.73 12.46 9.23C12.8 9.7 13.26 10.44 13.49 10.86C13.91 11.61 13.65 12.36 13.24 12.68L12.43 13.33C12.01 13.67 12.07 14.29 12.07 14.29C12.07 14.29 13.28 18.89 17.79 20.05C17.79 20.05 18.41 20.11 18.75 19.69L19.4 18.87C19.71 18.46 20.47 18.2 21.21 18.62C22.21 19.19 23.48 20.07 24.32 20.87C24.79 21.26 24.9 21.85 24.58 22.48Z" fill="#FFFFFF" fill-opacity="1.000000" fill-rule="nonzero"/>
</svg>
