<svg width="400" height="400" viewBox="0 0 400 400" fill="none" xmlns="http://www.w3.org/2000/svg">
<g clip-path="url(#clip0_620_476)">
<rect width="400" height="400" rx="20" fill="white"/>
<g filter="url(#filter0_f_620_476)">
<circle cx="200" cy="200" r="154" fill="#C931EB"/>
</g>
<g filter="url(#filter1_f_620_476)">
<circle cx="200" cy="200" r="154" fill="#C931EB"/>
</g>
<g filter="url(#filter2_f_620_476)">
<circle cx="200.5" cy="199.5" r="124.5" fill="#C931EB"/>
</g>
<g filter="url(#filter3_f_620_476)">
<circle cx="200.5" cy="199.5" r="124.5" fill="#C931EB"/>
</g>
<path d="M108 278C77.4667 278 55 271.4 40.6 258.2C26.2 244.867 19 226.2 19 202.2C19 178.467 26.1333 159.933 40.4 146.6C54.8 133.267 77.3333 126.6 108 126.6C138.8 126.6 161.333 133.267 175.6 146.6C190 159.933 197.2 178.467 197.2 202.2C197.2 226.333 190.067 245 175.8 258.2C161.533 271.4 138.933 278 108 278ZM108 237.2C122.8 237.2 133.467 234.4 140 228.8C146.533 223.067 149.8 214.2 149.8 202.2C149.8 190.467 146.533 181.733 140 176C133.467 170.267 122.8 167.4 108 167.4C93.3333 167.4 82.7333 170.267 76.2 176C69.6667 181.733 66.4 190.467 66.4 202.2C66.4 214.067 69.6667 222.867 76.2 228.6C82.7333 234.333 93.3333 237.2 108 237.2ZM317.541 276C311.274 264.667 300.874 247.333 286.341 224L262.941 247.2V276H213.141C214.207 250.133 214.741 225.933 214.741 203.4C214.741 180.867 214.207 156.667 213.141 130.8H262.941V189.4C287.474 165.133 304.941 145.6 315.341 130.8H380.141L317.141 193.2C326.474 206.267 336.941 220.467 348.541 235.8C360.274 251.133 370.874 264.533 380.341 276H317.541Z" fill="#FFEF3A"/>
</g>
<defs>
<filter id="filter0_f_620_476" x="-354" y="-354" width="1108" height="1108" filterUnits="userSpaceOnUse" color-interpolation-filters="sRGB">
<feFlood flood-opacity="0" result="BackgroundImageFix"/>
<feBlend mode="normal" in="SourceGraphic" in2="BackgroundImageFix" result="shape"/>
<feGaussianBlur stdDeviation="200" result="effect1_foregroundBlur_620_476"/>
</filter>
<filter id="filter1_f_620_476" x="-354" y="-354" width="1108" height="1108" filterUnits="userSpaceOnUse" color-interpolation-filters="sRGB">
<feFlood flood-opacity="0" result="BackgroundImageFix"/>
<feBlend mode="normal" in="SourceGraphic" in2="BackgroundImageFix" result="shape"/>
<feGaussianBlur stdDeviation="200" result="effect1_foregroundBlur_620_476"/>
</filter>
<filter id="filter2_f_620_476" x="-224" y="-225" width="849" height="849" filterUnits="userSpaceOnUse" color-interpolation-filters="sRGB">
<feFlood flood-opacity="0" result="BackgroundImageFix"/>
<feBlend mode="normal" in="SourceGraphic" in2="BackgroundImageFix" result="shape"/>
<feGaussianBlur stdDeviation="150" result="effect1_foregroundBlur_620_476"/>
</filter>
<filter id="filter3_f_620_476" x="-74" y="-75" width="549" height="549" filterUnits="userSpaceOnUse" color-interpolation-filters="sRGB">
<feFlood flood-opacity="0" result="BackgroundImageFix"/>
<feBlend mode="normal" in="SourceGraphic" in2="BackgroundImageFix" result="shape"/>
<feGaussianBlur stdDeviation="75" result="effect1_foregroundBlur_620_476"/>
</filter>
<clipPath id="clip0_620_476">
<rect width="400" height="400" rx="20" fill="white"/>
</clipPath>
</defs>
</svg>
